{
    "asset" : {
        "generator" : "Khronos glTF Blender I/O v1.6.16",
        "version" : "2.0"
    },
    "scene" : 0,
    "scenes" : [
        {
            "name" : "Scene",
            "nodes" : [
                0
            ]
        }
    ],
    "nodes" : [
        {
            "mesh" : 0,
            "name" : "Sphere",
            "rotation" : [
                0.011976437643170357,
                -0.3377392590045929,
                -0.12604975700378418,
                0.9326845407485962
            ],
            "scale" : [
                0.5600379109382629,
                0.40577322244644165,
                0.708604633808136
            ],
            "translation" : [
                0.45439279079437256,
                1.5200541019439697,
                2.809868335723877
            ]
        }
    ],
    "materials" : [
        {
            "doubleSided" : true,
            "name" : "Material.017",
            "pbrMetallicRoughness" : {
                "baseColorFactor" : [
                    0.17886139452457428,
                    0.17886139452457428,
                    0.17886139452457428,
                    1
                ],
                "metallicFactor" : 0,
                "roughnessFactor" : 0.5
            }
        }
    ],
    "meshes" : [
        {
            "name" : "Sphere",
            "primitives" : [
                {
                    "attributes" : {
                        "POSITION" : 0,
                        "NORMAL" : 1
                    },
                    "indices" : 2,
                    "material" : 0
                }
            ]
        }
    ],
    "accessors" : [
        {
            "bufferView" : 0,
            "componentType" : 5126,
            "count" : 128,
            "max" : [
                0.9983212947845459,
                0.9964260458946228,
                0.9999995231628418
            ],
            "min" : [
                -0.9980162382125854,
                -1.004835844039917,
                -0.9983213543891907
            ],
            "type" : "VEC3"
        },
        {
            "bufferView" : 1,
            "componentType" : 5126,
            "count" : 128,
            "type" : "VEC3"
        },
        {
            "bufferView" : 2,
            "componentType" : 5123,
            "count" : 156,
            "type" : "SCALAR"
        }
    ],
    "bufferViews" : [
        {
            "buffer" : 0,
            "byteLength" : 1536,
            "byteOffset" : 0
        },
        {
            "buffer" : 0,
            "byteLength" : 1536,
            "byteOffset" : 1536
        },
        {
            "buffer" : 0,
            "byteLength" : 312,
            "byteOffset" : 3072
        }
    ],
    "buffers" : [
        {
            "byteLength" : 3384,
            "uri" : "data:application/octet-stream;base64,"
        }
    ]
}
